<?xml version="1.0" standalone="no"?>
<!DOCTYPE svg PUBLIC "-//W3C//DTD SVG 20010904//EN"
 "http://www.w3.org/TR/2001/REC-SVG-20010904/DTD/svg10.dtd">
<svg version="1.0" xmlns="http://www.w3.org/2000/svg"
 width="1080.000000pt" height="1080.000000pt" viewBox="0 0 1080.000000 1080.000000"
 preserveAspectRatio="xMidYMid meet">
<metadata>
Created by potrace 1.14, written by Peter Selinger 2001-2017
</metadata>
<g transform="translate(0.000000,1080.000000) scale(0.100000,-0.100000)"
fill="#000000" stroke="none">
<path d="M3944 6946 c-2 -6 -3 -708 -1 -1561 l2 -1550 35 0 35 0 0 1560 0
1560 -34 1 c-18 0 -35 -4 -37 -10z"/>
<path d="M7556 6943 c-9 -23 -7 -30 10 -37 22 -8 43 10 37 32 -5 22 -39 26
-47 5z"/>
<path d="M7640 6863 l0 -44 43 3 c42 3 42 3 42 43 l0 40 -42 1 -43 1 0 -44z"/>
<path d="M7360 6824 c0 -42 0 -42 38 -42 44 0 51 9 43 51 -6 29 -10 32 -44 32
-37 1 -37 1 -37 -41z"/>
<path d="M7515 6768 c0 -29 3 -58 7 -64 4 -5 31 -10 60 -10 l53 1 3 63 3 62
-63 0 -64 0 1 -52z"/>
<path d="M7668 6773 c-8 -30 2 -43 33 -43 27 0 30 3 27 28 -2 21 -9 28 -29 30
-19 2 -28 -2 -31 -15z"/>
<path d="M7180 6669 l0 -70 67 3 67 3 1 62 c1 71 2 70 -82 71 l-53 1 0 -70z"/>
<path d="M7360 6623 l0 -73 -70 0 -71 0 -83 -127 c-45 -71 -154 -238 -241
-373 -87 -135 -163 -251 -170 -258 -9 -10 -14 -7 -26 15 -8 15 -18 33 -22 38
-5 6 -30 44 -56 85 -27 41 -90 138 -140 215 l-91 140 -765 0 c-421 0 -766 -2
-766 -5 -1 -3 -2 -103 -3 -222 l-2 -218 26 -1 c14 0 310 -1 658 -1 l633 -1 48
-71 c26 -39 64 -96 83 -126 l35 -56 -734 1 c-479 0 -737 -3 -742 -10 -10 -12
-9 -421 1 -430 4 -4 329 -7 723 -7 550 1 714 -2 708 -11 -13 -22 -116 -182
-120 -187 -3 -3 -298 -5 -656 -6 -359 -1 -654 -2 -657 -3 -3 0 -6 -99 -6 -218
l1 -218 512 -5 512 -5 -92 -140 c-140 -213 -327 -503 -327 -507 0 -6 498 -4
503 2 4 5 179 275 347 535 57 88 135 210 175 270 39 61 108 165 152 232 l80
123 164 -255 164 -255 253 0 c138 0 252 2 252 5 0 4 -42 70 -208 325 -41 63
-94 144 -117 180 -23 36 -85 131 -137 211 -53 80 -100 155 -106 165 -10 19 40
104 188 324 17 26 143 220 213 330 37 58 113 174 167 258 55 85 100 157 100
160 0 4 -52 6 -115 5 l-115 -3 -1 25 c-1 14 -2 35 -2 48 -1 19 4 22 46 25 26
2 47 6 48 10 1 4 2 36 4 72 l2 65 -79 0 -78 0 0 -72z m-62 -120 c1 -31 -1 -33
-33 -33 -29 0 -34 3 -33 23 2 31 13 43 41 43 20 0 24 -5 25 -33z m96 -117 l-1
-63 46 1 46 1 3 -47 3 -48 -49 0 -49 0 2 40 c2 49 -11 59 -77 55 -53 -3 -50
-8 -52 77 l-1 48 65 0 66 0 -2 -64z"/>
<path d="M7519 6548 c-1 -2 -2 -15 -3 -30 -3 -29 6 -36 44 -34 20 1 25 6 26
34 2 30 0 32 -32 32 -19 0 -34 -1 -35 -2z"/>
<path d="M7650 6250 c-1 -58 -1 -1681 0 -1736 l0 -40 180 0 c157 0 180 2 181
15 0 9 0 132 -1 274 l-1 257 153 1 c198 1 222 3 294 23 110 32 184 76 270 161
95 94 145 178 174 291 58 225 -5 456 -169 614 -98 95 -187 142 -332 176 -13 3
-187 7 -386 8 l-363 2 0 -46z m732 -340 c182 -69 232 -306 93 -444 -66 -66
-108 -78 -285 -81 -85 -1 -160 0 -167 2 -8 3 -11 78 -11 274 l0 269 159 0
c134 0 167 -3 211 -20z"/>
<path d="M9858 6295 c-2 -2 -32 -5 -68 -8 -205 -17 -387 -105 -544 -263 -133
-134 -212 -284 -255 -479 -3 -16 -6 -93 -5 -170 0 -113 5 -156 23 -225 89
-329 365 -590 695 -656 292 -60 598 27 806 227 203 196 291 410 285 689 -4
189 -46 324 -149 479 -42 62 -143 170 -211 223 -116 92 -284 161 -423 173
-112 10 -151 12 -154 10z m157 -378 c153 -38 289 -146 359 -287 188 -373 -97
-813 -509 -787 -107 7 -128 12 -214 52 -127 60 -240 192 -286 335 -22 68 -25
184 -8 269 32 155 150 306 293 374 41 20 98 40 125 46 48 10 199 8 240 -2z"/>
<path d="M807 6072 c-16 -3 -17 -28 -15 -320 l3 -317 30 0 30 0 2 130 c1 72 2
136 2 143 1 8 21 12 64 12 80 0 124 23 154 80 31 57 31 131 1 190 -33 64 -70
82 -171 84 -46 0 -91 0 -100 -2z m161 -64 c17 -5 37 -19 44 -31 34 -63 24
-156 -18 -184 -26 -17 -113 -25 -129 -13 -8 7 -11 98 -6 217 1 18 7 21 39 21
20 0 52 -5 70 -10z"/>
<path d="M1202 6060 c-6 -11 -8 -526 -3 -612 1 -13 9 -18 31 -18 34 0 32 -12
31 155 0 141 1 144 47 142 l37 -2 50 -145 c50 -144 50 -145 83 -148 17 -2 32
-1 32 1 0 3 -22 69 -50 148 -27 79 -50 146 -50 149 0 4 12 13 26 20 65 35 89
168 45 246 -35 62 -66 75 -177 78 -78 1 -97 -1 -102 -14z m207 -74 c45 -45 35
-168 -17 -194 -9 -5 -42 -10 -74 -11 l-56 -2 0 113 c0 62 2 116 4 120 2 3 30
5 61 3 44 -3 61 -9 82 -29z"/>
<path d="M1695 6073 c-38 -10 -83 -53 -96 -90 -8 -26 -12 -106 -12 -244 0
-201 1 -208 24 -240 30 -44 46 -56 91 -67 45 -12 114 1 144 27 52 43 58 70 57
298 0 230 -5 251 -63 295 -26 19 -109 31 -145 21z m114 -82 l28 -30 0 -199 c1
-217 -6 -249 -53 -270 -42 -20 -99 1 -122 44 -18 33 -15 399 3 435 30 58 100
67 144 20z"/>
<path d="M2037 6072 c-16 -3 -17 -31 -17 -323 l0 -319 24 0 c13 0 28 6 33 13
5 6 9 72 8 145 -1 113 1 132 14 133 9 1 41 2 71 3 52 1 55 2 58 29 l3 27 -70
0 c-50 0 -71 4 -72 13 -4 34 -5 194 -1 207 3 13 22 16 110 15 l107 0 3 28 c3
22 -1 27 -20 28 -121 3 -237 3 -251 1z"/>
<path d="M2400 6072 c-6 -2 -10 -120 -10 -322 l0 -319 143 2 142 2 3 28 3 27
-113 0 -114 0 0 115 c0 97 2 115 16 116 8 1 40 2 70 3 52 1 55 2 58 29 l3 27
-73 0 -73 0 0 117 0 118 110 0 110 0 3 28 c3 25 0 27 -30 27 -18 1 -79 2 -136
3 -56 1 -107 1 -112 -1z"/>
<path d="M2841 6063 c-56 -29 -75 -64 -75 -136 -1 -79 18 -109 116 -187 100
-79 118 -103 118 -155 0 -62 -33 -99 -86 -98 -43 1 -83 37 -85 76 -1 12 -2 29
-3 37 0 9 -13 16 -33 18 l-32 3 4 -51 c9 -118 127 -180 230 -121 40 23 64 68
69 127 6 68 -16 107 -94 172 -142 118 -156 138 -138 206 11 44 37 66 76 66 41
0 90 -46 87 -82 -3 -35 13 -58 40 -58 23 0 25 4 25 43 0 50 -25 103 -61 129
-37 28 -116 33 -158 11z"/>
<path d="M3172 5753 l3 -318 30 0 30 0 0 318 1 317 -33 0 -33 0 2 -317z"/>
<path d="M2205 5300 c-45 -9 -81 -37 -99 -75 -13 -27 -16 -73 -16 -250 0 -231
3 -246 53 -293 35 -33 128 -41 176 -15 66 35 76 60 76 191 l0 117 -78 2 -77 1
3 -26 c3 -24 9 -28 48 -32 l44 -5 -2 -75 c-3 -93 -22 -123 -78 -128 -51 -4
-83 14 -94 53 -12 44 -12 372 0 418 8 30 18 42 46 53 64 27 120 -13 126 -91 2
-37 5 -40 32 -40 30 0 30 0 28 55 -4 101 -84 161 -188 140z"/>
<path d="M0 4980 c0 -277 2 -320 15 -321 52 -5 49 -12 50 112 1 111 2 119 29
160 l29 43 14 -29 c9 -15 33 -71 55 -124 55 -135 68 -161 78 -161 4 0 14 -2
22 -5 7 -3 19 -1 26 3 9 6 -8 55 -68 192 l-80 183 70 123 c39 67 70 127 70
134 0 7 -11 10 -27 8 -29 -3 -61 -41 -119 -145 -53 -93 -94 -163 -97 -163 -2
0 -3 68 -2 150 1 83 -1 150 -4 151 -4 0 -18 3 -33 5 l-28 5 0 -321z"/>
<path d="M416 5290 c-2 -3 -3 -146 -2 -319 l1 -315 142 0 c123 -1 143 1 146
15 10 37 -8 43 -117 43 l-106 -1 -1 46 c-1 63 -1 163 0 179 1 9 19 12 67 11
69 -2 86 7 77 41 -4 14 -15 17 -64 16 -33 -1 -64 1 -69 4 -9 5 -13 95 -11 193
l1 37 109 0 c112 0 123 4 114 41 -4 13 -26 15 -144 15 -77 0 -142 -3 -143 -6z"/>
<path d="M805 5292 c-3 -3 -5 -121 -4 -261 1 -232 3 -260 20 -297 54 -112 228
-109 277 5 12 29 16 84 17 281 0 135 -1 252 -3 261 -2 10 -13 16 -30 15 l-27
-1 -5 -262 c-5 -246 -6 -263 -26 -290 -24 -32 -73 -42 -110 -22 -43 22 -48 58
-50 319 -1 135 -2 248 -3 251 -1 8 -48 9 -56 1z"/>
<path d="M1345 5290 c-4 -6 -32 -115 -39 -150 -2 -14 -16 -77 -31 -140 -14
-63 -28 -126 -31 -140 -4 -21 -11 -56 -20 -95 -1 -5 -7 -30 -13 -55 -5 -24 -8
-46 -7 -48 2 -1 16 -4 31 -5 30 -2 37 11 49 86 3 16 6 31 9 33 5 5 167 7 172
2 2 -2 7 -26 10 -53 4 -28 10 -53 14 -58 14 -15 52 -16 57 -2 5 12 -12 99 -61
310 -7 33 -23 103 -34 155 -39 172 -38 171 -72 168 -17 -1 -32 -5 -34 -8z m63
-235 c23 -113 28 -138 38 -191 l6 -31 -74 2 c-40 2 -74 3 -74 4 -1 1 3 20 8
44 5 23 12 53 14 67 5 22 31 143 39 180 2 8 4 24 4 35 2 41 18 -5 39 -110z"/>
<path d="M1656 5292 c-3 -3 -6 -146 -6 -318 l0 -312 27 -5 c16 -3 31 -4 34 -2
3 2 5 108 5 235 -1 126 2 230 6 230 5 0 8 -5 8 -11 0 -8 165 -431 174 -446 5
-7 57 -10 61 -4 4 8 7 250 6 516 l-1 121 -30 2 c-23 2 -30 -2 -31 -15 0 -10 0
-117 0 -238 0 -130 -3 -214 -8 -205 -5 8 -46 110 -91 225 -45 116 -86 214 -91
219 -9 10 -55 16 -63 8z"/>
<path d="M2614 5289 c-15 -24 -141 -625 -133 -630 6 -3 21 -4 34 -2 19 4 25
15 34 63 l12 58 57 4 c31 1 71 2 89 0 29 -3 32 -6 38 -51 8 -60 18 -75 49 -77
29 -1 32 13 16 81 -12 48 -39 170 -46 205 -3 14 -22 99 -42 189 l-38 164 -32
2 c-18 1 -35 -2 -38 -6z m42 -122 c1 -7 16 -80 33 -164 17 -83 31 -156 31
-161 0 -5 -30 -8 -67 -6 -85 2 -85 2 -79 12 3 5 7 21 10 36 3 16 17 85 32 155
15 69 27 132 27 139 0 14 10 7 13 -11z"/>
<path d="M2926 5292 c-2 -4 -4 -147 -4 -319 1 -301 1 -312 20 -317 44 -11 46
-5 46 202 0 108 0 213 1 232 1 27 21 -15 93 -195 50 -126 91 -231 92 -232 1 0
16 -3 34 -6 25 -4 32 -2 33 11 4 86 0 612 -5 620 -4 7 -18 11 -31 10 -29 -3
-26 25 -26 -275 0 -106 -1 -193 -3 -193 -2 0 -14 26 -26 58 -12 31 -26 66 -31
77 -4 11 -34 85 -65 165 -31 80 -60 149 -65 154 -10 11 -57 17 -63 8z"/>
<path d="M9395 4386 c-36 -16 -70 -52 -83 -87 -14 -34 -4 -45 42 -47 33 -2 43
2 61 24 40 50 99 12 76 -49 -6 -14 -44 -52 -85 -84 -83 -64 -97 -89 -101 -175
l-3 -58 147 0 148 0 -1 48 -1 47 -100 5 -100 5 21 20 c11 11 46 38 77 60 119
84 135 204 36 277 -32 24 -97 31 -134 14z"/>
<path d="M9830 4390 c-75 -21 -152 -93 -170 -159 -25 -90 -6 -172 55 -240 90
-99 246 -104 344 -10 121 115 86 322 -66 394 -38 19 -124 26 -163 15z m130
-109 c45 -23 78 -82 76 -131 -4 -77 -70 -140 -146 -140 -46 0 -77 17 -113 62
-24 30 -29 46 -29 84 3 111 115 177 212 125z"/>
<path d="M10255 4386 c-40 -18 -73 -56 -84 -94 -11 -38 -8 -42 45 -42 33 0 44
4 49 19 11 34 76 39 88 7 12 -32 -8 -69 -60 -112 -30 -24 -60 -47 -67 -52 -35
-21 -57 -70 -61 -135 l-4 -67 148 0 147 0 1 50 0 50 -98 0 c-113 0 -119 9 -41
59 151 96 180 223 71 303 -33 24 -97 31 -134 14z"/>
<path d="M10590 4382 c-41 -22 -80 -75 -80 -108 0 -21 5 -24 42 -24 34 0 46 5
64 27 19 24 25 26 50 18 61 -22 39 -80 -58 -154 -78 -60 -95 -89 -99 -171 l-3
-55 147 -3 147 -3 0 51 0 50 -95 0 c-53 0 -95 4 -95 9 0 6 29 32 66 59 80 61
111 102 120 157 12 82 -41 149 -127 160 -32 4 -53 1 -79 -13z"/>
</g>
</svg>
