<?xml version="1.0" encoding="UTF-8" standalone="no"?><!DOCTYPE svg PUBLIC "-//W3C//DTD SVG 1.1//EN" "http://www.w3.org/Graphics/SVG/1.1/DTD/svg11.dtd"><svg width="100%" height="100%" viewBox="0 0 48 48" version="1.1" xmlns="http://www.w3.org/2000/svg" xmlns:xlink="http://www.w3.org/1999/xlink" xml:space="preserve" xmlns:serif="http://www.serif.com/" style="fill-rule:evenodd;clip-rule:evenodd;stroke-linejoin:round;stroke-miterlimit:2;"><path d="M38.958,47.426l-30.49,-0c-4.677,-0 -8.468,-3.791 -8.468,-8.469l0,-30.488c0,-4.678 3.791,-8.469 8.468,-8.469l30.49,-0c4.677,-0 8.469,3.791 8.469,8.469l-0,30.488c-0,4.678 -3.792,8.469 -8.469,8.469Z" style="fill:url(#_Radial1);"/><path d="M23.713,7.844c-4.31,-0 -4.85,0.018 -6.543,0.095c-1.689,0.077 -2.843,0.345 -3.852,0.738c-1.044,0.406 -1.929,0.948 -2.811,1.83c-0.882,0.882 -1.424,1.769 -1.83,2.811c-0.393,1.009 -0.661,2.163 -0.738,3.852c-0.077,1.693 -0.095,2.233 -0.095,6.543c-0,4.31 0.018,4.85 0.095,6.543c0.077,1.689 0.345,2.843 0.738,3.852c0.406,1.044 0.948,1.929 1.83,2.811c0.882,0.882 1.767,1.426 2.811,1.831c1.009,0.392 2.163,0.66 3.852,0.737c1.693,0.077 2.233,0.095 6.543,0.095c4.31,0 4.85,-0.018 6.543,-0.095c1.689,-0.077 2.843,-0.345 3.852,-0.737c1.044,-0.405 1.929,-0.949 2.811,-1.831c0.882,-0.882 1.424,-1.767 1.831,-2.811c0.392,-1.009 0.66,-2.163 0.737,-3.852c0.077,-1.693 0.095,-2.233 0.095,-6.543c0,-4.31 -0.018,-4.85 -0.095,-6.543c-0.077,-1.689 -0.345,-2.843 -0.737,-3.852c-0.407,-1.042 -0.949,-1.929 -1.831,-2.811c-0.882,-0.882 -1.767,-1.424 -2.811,-1.83c-1.009,-0.393 -2.163,-0.661 -3.852,-0.738c-1.693,-0.077 -2.233,-0.095 -6.543,-0.095Zm0,2.859c4.238,0 4.739,0.016 6.413,0.093c1.547,0.07 2.387,0.329 2.947,0.546c0.74,0.288 1.27,0.632 1.824,1.187c0.556,0.556 0.899,1.084 1.187,1.825c0.217,0.559 0.476,1.399 0.547,2.946c0.076,1.674 0.093,2.175 0.093,6.413c-0,4.238 -0.017,4.739 -0.093,6.413c-0.071,1.547 -0.33,2.387 -0.547,2.946c-0.288,0.742 -0.631,1.269 -1.187,1.826c-0.554,0.554 -1.084,0.898 -1.824,1.186c-0.56,0.217 -1.4,0.476 -2.947,0.547c-1.674,0.076 -2.175,0.093 -6.413,0.093c-4.238,-0 -4.739,-0.017 -6.413,-0.093c-1.546,-0.071 -2.387,-0.33 -2.946,-0.547c-0.741,-0.288 -1.269,-0.632 -1.825,-1.186c-0.555,-0.557 -0.899,-1.084 -1.187,-1.826c-0.217,-0.559 -0.476,-1.399 -0.547,-2.946c-0.076,-1.674 -0.092,-2.175 -0.092,-6.413c0,-4.238 0.016,-4.739 0.092,-6.413c0.071,-1.547 0.33,-2.387 0.547,-2.946c0.288,-0.741 0.632,-1.269 1.187,-1.825c0.556,-0.555 1.084,-0.899 1.825,-1.187c0.559,-0.217 1.4,-0.476 2.946,-0.546c1.674,-0.077 2.177,-0.093 6.413,-0.093Z" style="fill:#fff;fill-rule:nonzero;"/><path d="M23.713,29.003c-2.922,-0 -5.29,-2.368 -5.29,-5.29c0,-2.921 2.368,-5.29 5.29,-5.29c2.922,0 5.29,2.369 5.29,5.29c-0,2.922 -2.368,5.29 -5.29,5.29Zm0,-13.438c-4.5,-0 -8.149,3.648 -8.149,8.148c-0,4.501 3.649,8.149 8.149,8.149c4.501,0 8.149,-3.648 8.149,-8.149c0,-4.5 -3.648,-8.148 -8.149,-8.148Z" style="fill:#fff;fill-rule:nonzero;"/><path d="M34.089,15.243c-0,1.05 -0.853,1.904 -1.904,1.904c-1.052,-0 -1.906,-0.854 -1.906,-1.904c0,-1.052 0.854,-1.906 1.906,-1.906c1.051,0 1.904,0.854 1.904,1.906Z" style="fill:#fff;fill-rule:nonzero;"/><defs><radialGradient id="_Radial1" cx="0" cy="0" r="1" gradientUnits="userSpaceOnUse" gradientTransform="matrix(63.2083,-60.7772,60.7772,63.2083,-1.1866,47.584)"><stop offset="0" style="stop-color:#f2ec55;stop-opacity:1"/><stop offset="0.1" style="stop-color:#fdbe4b;stop-opacity:1"/><stop offset="0.2" style="stop-color:#f7934d;stop-opacity:1"/><stop offset="0.3" style="stop-color:#f37759;stop-opacity:1"/><stop offset="0.5" style="stop-color:#e84a85;stop-opacity:1"/><stop offset="0.6" style="stop-color:#b0499b;stop-opacity:1"/><stop offset="0.7" style="stop-color:#794c9e;stop-opacity:1"/><stop offset="0.8" style="stop-color:#534ea1;stop-opacity:1"/><stop offset="1" style="stop-color:#2358a8;stop-opacity:1"/></radialGradient></defs></svg>