<?xml version="1.0" encoding="UTF-8" standalone="no"?><!DOCTYPE svg PUBLIC "-//W3C//DTD SVG 1.1//EN" "http://www.w3.org/Graphics/SVG/1.1/DTD/svg11.dtd"><svg width="100%" height="100%" viewBox="0 0 48 48" version="1.1" xmlns="http://www.w3.org/2000/svg" xmlns:xlink="http://www.w3.org/1999/xlink" xml:space="preserve" xmlns:serif="http://www.serif.com/" style="fill-rule:evenodd;clip-rule:evenodd;stroke-linejoin:round;stroke-miterlimit:2;"><path d="M38.958,47.427l-30.489,0c-4.677,0 -8.469,-3.792 -8.469,-8.469l0,-30.489c0,-4.677 3.792,-8.469 8.469,-8.469l30.489,0c4.678,0 8.469,3.792 8.469,8.469l0,30.489c0,4.677 -3.791,8.469 -8.469,8.469Z" style="fill:#ec3126;fill-rule:nonzero;"/><path d="M38.958,16.581c-0.365,-1.274 -1.443,-2.279 -2.813,-2.619c-2.482,-0.62 -12.431,-0.62 -12.431,-0.62c-0,0 -9.95,0 -12.432,0.62c-1.369,0.34 -2.447,1.345 -2.813,2.619c-0.665,2.311 -0.665,7.133 -0.665,7.133c0,-0 0,4.821 0.665,7.132c0.366,1.275 1.444,2.279 2.813,2.62c2.482,0.619 12.432,0.619 12.432,0.619c-0,-0 9.949,-0 12.431,-0.619c1.37,-0.341 2.448,-1.345 2.813,-2.62c0.665,-2.311 0.665,-7.132 0.665,-7.132c-0,-0 -0,-4.822 -0.665,-7.133Z" style="fill:#fff;fill-rule:nonzero;"/><path d="M20.194,28.819l0,-10.211l8.995,5.106l-8.995,5.105Z" style="fill:#ec3126;fill-rule:nonzero;"/></svg>